<?xml version="1.0" standalone="no"?>
<!DOCTYPE svg PUBLIC "-//W3C//DTD SVG 20010904//EN"
 "http://www.w3.org/TR/2001/REC-SVG-20010904/DTD/svg10.dtd">
<svg version="1.0" xmlns="http://www.w3.org/2000/svg"
 width="1024.000000pt" height="1024.000000pt" viewBox="0 0 1024.000000 1024.000000"
 preserveAspectRatio="xMidYMid meet">
<metadata>
Created by potrace 1.14, written by Peter Selinger 2001-2017
</metadata>
<g transform="translate(0.000000,1024.000000) scale(0.100000,-0.100000)"
fill="#000000" stroke="none">
<path d="M0 5120 l0 -5120 5120 0 5120 0 0 5120 0 5120 -5120 0 -5120 0 0
-5120z m5865 3486 c544 -39 897 -97 1276 -210 532 -157 822 -454 916 -938 17
-88 18 -205 18 -2128 l0 -2035 -28 -100 c-50 -183 -148 -352 -277 -480 l-70
-69 0 -353 c0 -215 -4 -372 -11 -403 -15 -70 -78 -160 -142 -203 -88 -60 -131
-67 -391 -67 -292 0 -359 16 -450 107 -101 100 -116 156 -116 430 l0 203
-1469 0 -1470 0 -3 -237 c-3 -218 -5 -242 -24 -284 -45 -97 -143 -176 -253
-204 -51 -14 -107 -16 -309 -13 l-247 3 -62 29 c-72 33 -144 104 -173 169 -34
77 -41 169 -39 499 l2 316 -77 85 c-185 202 -272 395 -296 659 -16 175 -8
3936 9 4028 88 492 327 771 811 948 401 147 953 232 1730 266 178 8 951 -4
1145 -18z"/>
<path d="M2910 6235 l0 -925 2215 0 2215 0 -2 923 -3 922 -2212 3 -2213 2 0
-925z"/>
<path d="M3374 4191 c-219 -35 -393 -195 -449 -416 -55 -217 44 -477 229 -597
93 -60 170 -80 306 -80 143 0 217 21 316 90 156 110 235 264 235 457 0 159
-52 287 -161 394 -121 119 -307 178 -476 152z"/>
<path d="M6694 4191 c-222 -35 -396 -199 -449 -422 -50 -214 44 -467 218 -582
145 -96 362 -121 524 -59 115 44 231 149 288 263 82 162 77 378 -14 534 -112
193 -343 301 -567 266z"/>
</g>
</svg>
